<svg width="55" height="55" viewBox="0 0 55 55" fill="none" xmlns="http://www.w3.org/2000/svg">
<g clip-path="url(#clip0_1002_94)">
<rect width="55" height="55" rx="20" fill="#F3F3F3"/>
<path fill-rule="evenodd" clip-rule="evenodd" d="M16.4697 27.5303C16.1768 27.2374 16.1768 26.7626 16.4697 26.4697L25.4697 17.4697C25.7626 17.1768 26.2374 17.1768 26.5303 17.4697C26.8232 17.7626 26.8232 18.2374 26.5303 18.5303L18.8107 26.25L38 26.25C38.4142 26.25 38.75 26.5858 38.75 27C38.75 27.4142 38.4142 27.75 38 27.75L18.8107 27.75L26.5303 35.4697C26.8232 35.7626 26.8232 36.2374 26.5303 36.5303C26.2374 36.8232 25.7626 36.8232 25.4697 36.5303L16.4697 27.5303Z" fill="#BBBBBB"/>
</g>
<defs>
<clipPath id="clip0_1002_94">
<rect width="55" height="55" fill="white"/>
</clipPath>
</defs>
</svg>
