<svg width="55" height="55" viewBox="0 0 55 55" fill="none" xmlns="http://www.w3.org/2000/svg">
<g clip-path="url(#clip0_1002_93)">
<rect width="55" height="55" rx="20" fill="#F3F3F3"/>
<path d="M37.9701 25.4715C37.9381 25.168 37.6941 24.9279 37.3854 24.8964C37.1979 24.877 37.0045 24.8673 36.8102 24.8673C34.8955 24.8673 32.7884 25.8151 31.1731 27.4026C29.4545 29.0932 28.5105 31.2335 28.6013 33.1907C28.4429 33.3448 28.2942 33.5042 28.1562 33.6693V25.7147C30.9233 25.3939 33.0777 23.0775 33.0777 20.272V13.4517C33.0777 13.2136 32.9445 12.9949 32.7309 12.8831C32.5181 12.7706 32.2588 12.7827 32.0574 12.915L30.0441 14.2343L27.9637 12.1891C27.7074 11.9371 27.2917 11.9369 27.0354 12.1891L24.955 14.2343L22.9417 12.915C22.7405 12.7832 22.4817 12.7712 22.2682 12.8831C22.0551 12.9949 21.9224 13.2136 21.9224 13.4517V20.272C21.9224 23.0773 24.0769 25.3936 26.8439 25.7147V33.6699C26.7056 33.5045 26.5571 33.345 26.3983 33.1913C26.4896 31.2341 25.5453 29.0937 23.8265 27.4032C22.2118 25.8157 20.1049 24.8679 18.19 24.8679C17.9957 24.8679 17.8021 24.8776 17.6149 24.8969C17.3062 24.9284 17.062 25.1685 17.0301 25.4721C16.8143 27.5136 17.7673 29.7967 19.5795 31.5793C21.1943 33.1668 23.3011 34.1141 25.2155 34.1141C25.3011 34.1141 25.3844 34.1051 25.4695 34.1013C26.3543 34.9545 26.8438 36.0414 26.8438 37.1917V41.3549C26.8438 41.7111 27.1379 42 27.5 42C27.8625 42 28.1561 41.7109 28.1561 41.3549V37.1858C28.1577 36.0377 28.647 34.9531 29.5302 34.1005C29.6151 34.1044 29.6984 34.1134 29.7842 34.1134C31.6985 34.1134 33.8054 33.1656 35.4207 31.5786C37.2324 29.796 38.1852 27.5132 37.97 25.4713L37.9701 25.4715ZM20.5076 30.6665C19.163 29.3436 18.3563 27.6641 18.3146 26.1597C19.8567 26.2006 21.5606 27.0001 22.898 28.3151C24.2428 29.638 25.05 31.3175 25.091 32.8219C23.5494 32.781 21.8455 31.9815 20.5076 30.6665ZM23.2348 20.2718V14.6569L24.6755 15.6011C24.9352 15.7715 25.2824 15.7382 25.5033 15.5206L27.5001 13.5575L29.4969 15.5203C29.718 15.7377 30.065 15.7717 30.3248 15.6009L31.7655 14.6569V20.2718C31.7655 22.5841 29.8519 24.4655 27.5001 24.4655C25.1483 24.4655 23.2348 22.5846 23.2348 20.2718ZM34.4927 30.6665C33.1543 31.9817 31.4506 32.781 29.9085 32.8219C29.9495 31.3177 30.7567 29.6384 32.1015 28.3151C33.4395 26.9999 35.1434 26.2006 36.6857 26.1597C36.644 27.6648 35.8368 29.3441 34.4927 30.6665Z" fill="#BBBBBB"/>
</g>
<defs>
<clipPath id="clip0_1002_93">
<rect width="55" height="55" fill="white"/>
</clipPath>
</defs>
</svg>
