<svg width="21" height="19" viewBox="0 0 21 19" fill="none" xmlns="http://www.w3.org/2000/svg">
<g clip-path="url(#clip0_807_93)">
<path fill-rule="evenodd" clip-rule="evenodd" d="M8.80024 5.86484C10.3959 5.44287 12.0965 5.66332 13.5294 6.47974C14.9628 7.29648 16.0135 8.64471 16.4444 10.2319C16.8754 11.8194 16.6493 13.5105 15.818 14.9315L15.19 16.005L13.0432 14.7491L13.6711 13.6757C14.1664 12.8291 14.2998 11.8252 14.0441 10.8836C13.7883 9.94145 13.1624 9.13324 12.2981 8.64075C11.4332 8.14795 10.4032 8.01363 9.43612 8.26937C8.46936 8.52503 7.65003 9.1479 7.15442 9.9951L2.35825 18.1937L0.211426 16.9378L5.00759 8.73921C5.83856 7.31874 7.20423 6.2869 8.80024 5.86484Z" fill="#676767"/>
<path fill-rule="evenodd" clip-rule="evenodd" d="M11.0985 0.230469L15.8347 8.63182C16.239 9.34885 16.5006 10.139 16.6058 10.9572C16.711 11.7754 16.6578 12.6069 16.4491 13.4046C16.2404 14.2023 15.8799 14.9518 15.3869 15.6097C14.8938 16.2678 14.2776 16.8218 13.5723 17.2389C12.8669 17.656 12.0867 17.9275 11.2763 18.0367C10.4659 18.146 9.6425 18.0907 8.85354 17.8742C8.06463 17.6577 7.32681 17.2846 6.68178 16.7777C6.03683 16.2709 5.49749 15.6404 5.09324 14.9233L4.48252 13.84L6.64914 12.6186L7.25986 13.7019C7.50573 14.138 7.83196 14.5183 8.21857 14.8221C8.60512 15.1259 9.04467 15.3475 9.51173 15.4756C9.97874 15.6038 10.4653 15.6364 10.944 15.5718C11.4228 15.5073 11.8857 15.3467 12.3064 15.0979C12.7271 14.8492 13.0979 14.5168 13.3964 14.1184C13.695 13.7199 13.9151 13.2636 14.0429 12.775C14.1707 12.2865 14.2034 11.7764 14.1389 11.2744C14.0744 10.7723 13.914 10.2894 13.6681 9.85325L8.93185 1.4519L11.0985 0.230469Z" fill="#676767"/>
<path fill-rule="evenodd" clip-rule="evenodd" d="M6.07736 7.46874C7.26174 6.30514 8.8635 5.65529 10.5291 5.65529H11.7727V8.14248H10.5291C9.50908 8.14248 8.53514 8.54079 7.82044 9.24295C7.10649 9.94437 6.70952 10.891 6.70952 11.8733C6.70952 12.8556 7.10649 13.8022 7.82044 14.5036C8.53514 15.2057 9.50908 15.6041 10.5291 15.6041H20.2114V18.0913H10.5291C8.8635 18.0913 7.26174 17.4414 6.07736 16.2778C4.89223 15.1135 4.22232 13.5296 4.22232 11.8733C4.22232 10.217 4.89223 8.63308 6.07736 7.46874Z" fill="#676767"/>
</g>
<defs>
<clipPath id="clip0_807_93">
<rect width="21" height="19" fill="white"/>
</clipPath>
</defs>
</svg>
